# WaveFront *.obj file (generated by Autodesk ATF)

mtllib room.mtl

g Solid1

v -0.100000 -0.100000 -20.100000
v -0.100000 -0.100000 0.100000
v -0.100000 0.100000 -11.500000
v -0.100000 0.100000 -8.500000
v -0.100000 5.100000 -11.500000
v -0.100000 5.100000 -8.500000
v -0.100000 8.100000 -20.100000
v -0.100000 8.100000 0.100000
v 0.000000 0.000000 -20.000000
v 0.000000 0.000000 0.000000
v 0.000000 0.100000 -11.500000
v 0.000000 0.100000 -8.500000
v 0.000000 5.100000 -11.500000
v 0.000000 5.100000 -8.500000
v 0.000000 8.000000 -20.000000
v 0.000000 8.000000 0.000000
v 8.500000 0.100000 -20.100000
v 8.500000 0.100000 -20.000000
v 8.500000 0.100000 0.000000
v 8.500000 0.100000 0.100000
v 8.500000 5.100000 -20.100000
v 8.500000 5.100000 -20.000000
v 8.500000 5.100000 0.000000
v 8.500000 5.100000 0.100000
v 11.500000 0.100000 -20.100000
v 11.500000 0.100000 -20.000000
v 11.500000 0.100000 0.000000
v 11.500000 0.100000 0.100000
v 11.500000 5.100000 -20.100000
v 11.500000 5.100000 -20.000000
v 11.500000 5.100000 0.000000
v 11.500000 5.100000 0.100000
v 20.000000 0.000000 -20.000000
v 20.000000 0.000000 0.000000
v 20.000000 0.100000 -11.500000
v 20.000000 0.100000 -8.500000
v 20.000000 5.100000 -11.500000
v 20.000000 5.100000 -8.500000
v 20.000000 8.000000 -20.000000
v 20.000000 8.000000 0.000000
v 20.100000 -0.100000 -20.100000
v 20.100000 -0.100000 0.100000
v 20.100000 0.100000 -11.500000
v 20.100000 0.100000 -8.500000
v 20.100000 5.100000 -11.500000
v 20.100000 5.100000 -8.500000
v 20.100000 8.100000 -20.100000
v 20.100000 8.100000 0.100000
vt -0.000000 0.010000 0.000000
vt -0.500000 0.010000 0.000000
vt -0.500000 0.000000 0.000000
vt -0.000000 0.000000 0.000000
vt -0.500000 -2.010000 0.000000
vt -0.000000 -2.010000 0.000000
vt -0.000000 -2.000000 0.000000
vt -0.500000 -2.000000 0.000000
vt -0.000000 0.010000 0.000000
vt -0.300000 0.010000 0.000000
vt -0.300000 0.000000 0.000000
vt -0.000000 0.000000 0.000000
vt -0.300000 -2.010000 0.000000
vt -0.000000 -2.010000 0.000000
vt -0.000000 -2.000000 0.000000
vt -0.300000 -2.000000 0.000000
vt -0.000000 0.010000 0.000000
vt -0.300000 0.010000 0.000000
vt -0.300000 0.000000 0.000000
vt -0.000000 0.000000 0.000000
vt -0.000000 0.010000 0.000000
vt -0.500000 0.010000 0.000000
vt -0.500000 0.000000 0.000000
vt -0.000000 0.000000 0.000000
vt -0.500000 -2.010000 0.000000
vt -0.000000 -2.010000 0.000000
vt -0.000000 -2.000000 0.000000
vt -0.500000 -2.000000 0.000000
vt -0.300000 -2.010000 0.000000
vt -0.000000 -2.010000 0.000000
vt -0.000000 -2.000000 0.000000
vt -0.300000 -2.000000 0.000000
vt -0.500000 0.000000 0.000000
vt -0.000000 0.000000 0.000000
vt -0.000000 0.010000 0.000000
vt -0.500000 0.010000 0.000000
vt -0.000000 -2.000000 0.000000
vt -0.500000 -2.000000 0.000000
vt -0.500000 -2.010000 0.000000
vt -0.000000 -2.010000 0.000000
vt -0.300000 0.000000 0.000000
vt -0.000000 0.000000 0.000000
vt -0.000000 0.010000 0.000000
vt -0.300000 0.010000 0.000000
vt -0.000000 -2.000000 0.000000
vt -0.300000 -2.000000 0.000000
vt -0.300000 -2.010000 0.000000
vt -0.000000 -2.010000 0.000000
vt -0.300000 0.000000 0.000000
vt -0.000000 0.000000 0.000000
vt -0.000000 0.010000 0.000000
vt -0.300000 0.010000 0.000000
vt -0.500000 0.000000 0.000000
vt -0.000000 0.000000 0.000000
vt -0.000000 0.010000 0.000000
vt -0.500000 0.010000 0.000000
vt -0.000000 -2.000000 0.000000
vt -0.500000 -2.000000 0.000000
vt -0.500000 -2.010000 0.000000
vt -0.000000 -2.010000 0.000000
vt -0.000000 -2.000000 0.000000
vt -0.300000 -2.000000 0.000000
vt -0.300000 -2.010000 0.000000
vt -0.000000 -2.010000 0.000000
vt 1.010000 1.010000 0.000000
vt -1.010000 1.010000 0.000000
vt -1.010000 -1.010000 0.000000
vt 1.010000 -1.010000 0.000000
vt 1.150000 0.510000 0.000000
vt 1.150000 0.010000 0.000000
vt 0.850000 0.010000 0.000000
vt 0.850000 0.510000 0.000000
vt -0.010000 -0.010000 0.000000
vt 2.010000 -0.010000 0.000000
vt 2.010000 0.810000 0.000000
vt -0.010000 0.810000 0.000000
vt 0.850000 0.010000 0.000000
vt 0.850000 0.510000 0.000000
vt 1.150000 0.510000 0.000000
vt 1.150000 0.010000 0.000000
vt -0.010000 -0.010000 0.000000
vt 2.010000 -0.010000 0.000000
vt 2.010000 0.810000 0.000000
vt -0.010000 0.810000 0.000000
vt 0.850000 0.010000 0.000000
vt 0.850000 0.510000 0.000000
vt 1.150000 0.510000 0.000000
vt 1.150000 0.010000 0.000000
vt -0.010000 -0.010000 0.000000
vt 2.010000 -0.010000 0.000000
vt 2.010000 0.810000 0.000000
vt -0.010000 0.810000 0.000000
vt 1.150000 0.510000 0.000000
vt 1.150000 0.010000 0.000000
vt 0.850000 0.010000 0.000000
vt 0.850000 0.510000 0.000000
vt -0.010000 -0.010000 0.000000
vt 2.010000 -0.010000 0.000000
vt 2.010000 0.810000 0.000000
vt -0.010000 0.810000 0.000000
vt 1.010000 -1.010000 0.000000
vt 1.010000 1.010000 0.000000
vt -1.010000 1.010000 0.000000
vt -1.010000 -1.010000 0.000000
vt -1.000000 1.000000 0.000000
vt -1.000000 -1.000000 0.000000
vt 1.000000 -1.000000 0.000000
vt 1.000000 1.000000 0.000000
vt -1.150000 0.010000 0.000000
vt -1.150000 0.510000 0.000000
vt -0.850000 0.510000 0.000000
vt -0.850000 0.010000 0.000000
vt -2.000000 0.000000 0.000000
vt -0.000000 0.000000 0.000000
vt -0.000000 0.800000 0.000000
vt -2.000000 0.800000 0.000000
vt -0.850000 0.510000 0.000000
vt -0.850000 0.010000 0.000000
vt -1.150000 0.010000 0.000000
vt -1.150000 0.510000 0.000000
vt -2.000000 0.000000 0.000000
vt -0.000000 0.000000 0.000000
vt -0.000000 0.800000 0.000000
vt -2.000000 0.800000 0.000000
vt -0.850000 0.510000 0.000000
vt -0.850000 0.010000 0.000000
vt -1.150000 0.010000 0.000000
vt -1.150000 0.510000 0.000000
vt -2.000000 0.000000 0.000000
vt -0.000000 0.000000 0.000000
vt -0.000000 0.800000 0.000000
vt -2.000000 0.800000 0.000000
vt -1.150000 0.010000 0.000000
vt -1.150000 0.510000 0.000000
vt -0.850000 0.510000 0.000000
vt -0.850000 0.010000 0.000000
vt -2.000000 0.000000 0.000000
vt -0.000000 0.000000 0.000000
vt -0.000000 0.800000 0.000000
vt -2.000000 0.800000 0.000000
vt 1.000000 1.000000 0.000000
vt -1.000000 1.000000 0.000000
vt -1.000000 -1.000000 0.000000
vt 1.000000 -1.000000 0.000000
vn 0.000000 0.000000 -0.100000
vn 0.000000 0.000000 -0.100000
vn 0.000000 0.000000 -0.100000
vn 0.000000 0.000000 -0.100000
vn 0.000000 0.000000 -0.100000
vn 0.000000 0.000000 -0.100000
vn 0.000000 0.000000 -0.100000
vn 0.000000 0.000000 -0.100000
vn 0.000000 -0.100000 0.000000
vn 0.000000 -0.100000 0.000000
vn 0.000000 -0.100000 0.000000
vn 0.000000 -0.100000 0.000000
vn 0.000000 -0.100000 0.000000
vn 0.000000 -0.100000 0.000000
vn 0.000000 -0.100000 0.000000
vn 0.000000 -0.100000 0.000000
vn 0.000000 0.100000 0.000000
vn 0.000000 0.100000 0.000000
vn 0.000000 0.100000 0.000000
vn 0.000000 0.100000 0.000000
vn 0.000000 0.000000 0.100000
vn 0.000000 0.000000 0.100000
vn 0.000000 0.000000 0.100000
vn 0.000000 0.000000 0.100000
vn 0.000000 0.000000 0.100000
vn 0.000000 0.000000 0.100000
vn 0.000000 0.000000 0.100000
vn 0.000000 0.000000 0.100000
vn 0.000000 0.100000 0.000000
vn 0.000000 0.100000 0.000000
vn 0.000000 0.100000 0.000000
vn 0.000000 0.100000 0.000000
vn 0.100000 0.000000 0.000000
vn 0.100000 0.000000 0.000000
vn 0.100000 0.000000 0.000000
vn 0.100000 0.000000 0.000000
vn 0.100000 0.000000 0.000000
vn 0.100000 0.000000 0.000000
vn 0.100000 0.000000 0.000000
vn 0.100000 0.000000 0.000000
vn 0.000000 0.100000 0.000000
vn 0.000000 0.100000 0.000000
vn 0.000000 0.100000 0.000000
vn 0.000000 0.100000 0.000000
vn 0.000000 0.100000 0.000000
vn 0.000000 0.100000 0.000000
vn 0.000000 0.100000 0.000000
vn 0.000000 0.100000 0.000000
vn 0.000000 -0.100000 0.000000
vn 0.000000 -0.100000 0.000000
vn 0.000000 -0.100000 0.000000
vn 0.000000 -0.100000 0.000000
vn -0.100000 0.000000 0.000000
vn -0.100000 0.000000 0.000000
vn -0.100000 0.000000 0.000000
vn -0.100000 0.000000 0.000000
vn -0.100000 0.000000 0.000000
vn -0.100000 0.000000 0.000000
vn -0.100000 0.000000 0.000000
vn -0.100000 0.000000 0.000000
vn 0.000000 -0.100000 0.000000
vn 0.000000 -0.100000 0.000000
vn 0.000000 -0.100000 0.000000
vn 0.000000 -0.100000 0.000000
vn 0.000000 -0.100000 0.000000
vn 0.000000 -0.100000 0.000000
vn 0.000000 -0.100000 0.000000
vn 0.000000 -0.100000 0.000000
vn 0.100000 0.000000 0.000000
vn 0.100000 0.000000 0.000000
vn 0.100000 0.000000 0.000000
vn 0.100000 0.000000 0.000000
vn 0.100000 0.000000 0.000000
vn 0.100000 0.000000 0.000000
vn 0.100000 0.000000 0.000000
vn 0.100000 0.000000 0.000000
vn 0.000000 0.000000 -0.100000
vn 0.000000 0.000000 -0.100000
vn 0.000000 0.000000 -0.100000
vn 0.000000 0.000000 -0.100000
vn 0.000000 0.000000 -0.100000
vn 0.000000 0.000000 -0.100000
vn 0.000000 0.000000 -0.100000
vn 0.000000 0.000000 -0.100000
vn -0.100000 0.000000 0.000000
vn -0.100000 0.000000 0.000000
vn -0.100000 0.000000 0.000000
vn -0.100000 0.000000 0.000000
vn -0.100000 0.000000 0.000000
vn -0.100000 0.000000 0.000000
vn -0.100000 0.000000 0.000000
vn -0.100000 0.000000 0.000000
vn 0.000000 0.000000 0.100000
vn 0.000000 0.000000 0.100000
vn 0.000000 0.000000 0.100000
vn 0.000000 0.000000 0.100000
vn 0.000000 0.000000 0.100000
vn 0.000000 0.000000 0.100000
vn 0.000000 0.000000 0.100000
vn 0.000000 0.000000 0.100000
vn 0.000000 0.100000 0.000000
vn 0.000000 0.100000 0.000000
vn 0.000000 0.100000 0.000000
vn 0.000000 0.100000 0.000000
vn 0.000000 -0.100000 0.000000
vn 0.000000 -0.100000 0.000000
vn 0.000000 -0.100000 0.000000
vn 0.000000 -0.100000 0.000000
vn 0.000000 0.000000 -0.100000
vn 0.000000 0.000000 -0.100000
vn 0.000000 0.000000 -0.100000
vn 0.000000 0.000000 -0.100000
vn 0.000000 0.000000 -0.100000
vn 0.000000 0.000000 -0.100000
vn 0.000000 0.000000 -0.100000
vn 0.000000 0.000000 -0.100000
vn 0.100000 0.000000 0.000000
vn 0.100000 0.000000 0.000000
vn 0.100000 0.000000 0.000000
vn 0.100000 0.000000 0.000000
vn 0.100000 0.000000 0.000000
vn 0.100000 0.000000 0.000000
vn 0.100000 0.000000 0.000000
vn 0.100000 0.000000 0.000000
vn 0.000000 0.000000 0.100000
vn 0.000000 0.000000 0.100000
vn 0.000000 0.000000 0.100000
vn 0.000000 0.000000 0.100000
vn 0.000000 0.000000 0.100000
vn 0.000000 0.000000 0.100000
vn 0.000000 0.000000 0.100000
vn 0.000000 0.000000 0.100000
vn -0.100000 0.000000 0.000000
vn -0.100000 0.000000 0.000000
vn -0.100000 0.000000 0.000000
vn -0.100000 0.000000 0.000000
vn -0.100000 0.000000 0.000000
vn -0.100000 0.000000 0.000000
vn -0.100000 0.000000 0.000000
vn -0.100000 0.000000 0.000000
vn 0.000000 0.100000 0.000000
vn 0.000000 0.100000 0.000000
vn 0.000000 0.100000 0.000000
vn 0.000000 0.100000 0.000000
usemtl 191,191,191
f 4/1/1 6/2/2 12/4/4
f 12/4/4 6/2/2 14/3/3
f 46/5/5 44/6/6 38/8/8
f 38/8/8 44/6/6 36/7/7
f 6/9/9 5/10/10 14/12/12
f 14/12/12 5/10/10 13/11/11
f 45/13/13 46/14/14 37/16/16
f 37/16/16 46/14/14 38/15/15
f 3/17/17 4/18/18 11/20/20
f 11/20/20 4/18/18 12/19/19
f 5/21/21 3/22/22 13/24/24
f 13/24/24 3/22/22 11/23/23
f 43/25/25 45/26/26 35/28/28
f 35/28/28 45/26/26 37/27/27
f 44/29/29 43/30/30 36/32/32
f 36/32/32 43/30/30 35/31/31
f 22/33/33 18/34/34 21/36/36
f 21/36/36 18/34/34 17/35/35
f 19/37/37 23/38/38 20/40/40
f 20/40/40 23/38/38 24/39/39
f 18/41/41 26/42/42 17/44/44
f 17/44/44 26/42/42 25/43/43
f 27/45/45 19/46/46 28/48/48
f 28/48/48 19/46/46 20/47/47
f 30/49/49 22/50/50 29/52/52
f 29/52/52 22/50/50 21/51/51
f 26/53/53 30/54/54 25/56/56
f 25/56/56 30/54/54 29/55/55
f 31/57/57 27/58/58 32/60/60
f 32/60/60 27/58/58 28/59/59
f 23/61/61 31/62/62 24/64/64
f 24/64/64 31/62/62 32/63/63
f 41/65/65 42/66/66 1/68/68
f 1/68/68 42/66/66 2/67/67
f 43/70/70 41/74/74 45/69/69
f 45/69/69 41/74/74 47/75/75
f 45/69/69 47/75/75 48/76/76
f 43/70/70 44/71/71 41/74/74
f 41/74/74 44/71/71 42/73/73
f 42/73/73 44/71/71 46/72/72
f 42/73/73 46/72/72 48/76/76
f 48/76/76 46/72/72 45/69/69
f 29/78/78 41/81/81 25/77/77
f 25/77/77 41/81/81 1/82/82
f 25/77/77 1/82/82 17/80/80
f 17/80/80 1/82/82 21/79/79
f 21/79/79 1/82/82 7/83/83
f 21/79/79 7/83/83 47/84/84
f 41/81/81 29/78/78 47/84/84
f 47/84/84 29/78/78 21/79/79
f 5/86/86 1/89/89 3/85/85
f 3/85/85 1/89/89 2/90/90
f 3/85/85 2/90/90 4/88/88
f 4/88/88 2/90/90 6/87/87
f 6/87/87 2/90/90 8/91/91
f 6/87/87 8/91/91 7/92/92
f 1/89/89 5/86/86 7/92/92
f 7/92/92 5/86/86 6/87/87
f 28/94/94 42/98/98 32/93/93
f 32/93/93 42/98/98 48/99/99
f 32/93/93 48/99/99 8/100/100
f 28/94/94 20/95/95 42/98/98
f 42/98/98 20/95/95 2/97/97
f 2/97/97 20/95/95 24/96/96
f 2/97/97 24/96/96 8/100/100
f 8/100/100 24/96/96 32/93/93
f 48/102/102 47/103/103 8/101/101
f 8/101/101 47/103/103 7/104/104
f 16/106/106 15/107/107 40/105/105
f 40/105/105 15/107/107 39/108/108
f 31/110/110 34/113/113 27/109/109
f 27/109/109 34/113/113 10/114/114
f 27/109/109 10/114/114 19/112/112
f 19/112/112 10/114/114 23/111/111
f 23/111/111 10/114/114 16/115/115
f 23/111/111 16/115/115 40/116/116
f 34/113/113 31/110/110 40/116/116
f 40/116/116 31/110/110 23/111/111
f 11/118/118 9/122/122 13/117/117
f 13/117/117 9/122/122 15/123/123
f 13/117/117 15/123/123 16/124/124
f 11/118/118 12/119/119 9/122/122
f 9/122/122 12/119/119 10/121/121
f 10/121/121 12/119/119 14/120/120
f 10/121/121 14/120/120 16/124/124
f 16/124/124 14/120/120 13/117/117
f 26/126/126 33/130/130 30/125/125
f 30/125/125 33/130/130 39/131/131
f 30/125/125 39/131/131 15/132/132
f 26/126/126 18/127/127 33/130/130
f 33/130/130 18/127/127 9/129/129
f 9/129/129 18/127/127 22/128/128
f 9/129/129 22/128/128 15/132/132
f 15/132/132 22/128/128 30/125/125
f 37/134/134 33/137/137 35/133/133
f 35/133/133 33/137/137 34/138/138
f 35/133/133 34/138/138 36/136/136
f 36/136/136 34/138/138 38/135/135
f 38/135/135 34/138/138 40/139/139
f 38/135/135 40/139/139 39/140/140
f 33/137/137 37/134/134 39/140/140
f 39/140/140 37/134/134 38/135/135
f 34/141/141 33/142/142 10/144/144
f 10/144/144 33/142/142 9/143/143

# 48 vertices
# 144 texture params
# 144 normals
# 104 facets

# 1 groups
